<svg width="420" height="420" viewBox="0 0 420 420" fill="none" xmlns="http://www.w3.org/2000/svg">
<g clip-path="url(#clip0_69_74)">
<path d="M102.648 221.11V254.409L102.722 254.482C104.202 310.355 125.755 362.826 163.906 403.536C152.915 400.932 142.175 397.382 131.731 392.9C112.042 384.453 93.95 372.944 77.885 358.669C72.5447 330.755 73.3879 301.583 80.3554 274.068C85.0743 255.429 92.6335 237.515 102.648 221.124V221.11ZM113.95 186.775C70.0151 236.613 54.5713 303.033 67.5447 364.542C102.426 396.716 148.225 417.234 198.758 419.897C191.361 414.216 184.261 408.048 177.545 401.361C136.909 360.917 114.335 307.116 113.95 249.808V186.79V186.775Z" fill="white"/>
<path d="M198.713 11.4645C222.219 27.4704 242.234 48.7278 256.731 73.1509C266.583 89.7337 273.876 107.811 278.373 126.553L257.796 105.976H257.781L257.766 105.932C216.775 65.3698 163.402 42.1746 106.657 40.074C115.592 34.6302 124.956 29.8817 134.704 25.9024C155.104 17.5444 176.627 12.6923 198.743 11.4645H198.713ZM201.894 0C151.435 1.90828 105.547 21.6124 70.2959 53.003C79.29 51.8491 88.4172 51.2426 97.6332 51.2278C97.8107 51.2278 98.003 51.2278 98.1805 51.2278C155.399 51.2278 209.112 73.713 249.793 113.964L294.556 158.728C290.503 92.3669 254.527 34.4083 201.894 0Z" fill="white"/>
<path d="M256.79 16.6718C267.648 19.2902 278.269 22.8257 288.595 27.2783C308.181 35.7103 326.169 47.1748 342.145 61.3908C347.471 89.2902 346.613 118.447 339.645 145.947C334.941 164.512 327.411 182.323 317.485 198.669L317.574 170.207V170.119C317.278 112.663 295.755 58.5209 256.805 16.6866L256.79 16.6718ZM221.982 0.177734C229.187 5.73986 236.095 11.7902 242.663 18.3138C283.373 58.8168 305.962 112.752 306.258 170.148L306.065 233.151C349.971 183.343 365.414 116.982 352.485 55.5032C317.766 23.4766 272.234 3.00318 221.982 0.177734Z" fill="white"/>
<path d="M141.982 293.668L162.545 314.112C203.521 354.482 257.219 377.455 314.453 379.29C305.444 384.852 296.006 389.704 286.169 393.772C265.725 402.248 244.157 407.204 221.968 408.52C198.417 392.589 178.343 371.376 163.772 346.982C153.876 330.429 146.539 312.381 141.982 293.654V293.668ZM125.681 261.538C129.941 327.87 166.065 385.739 218.817 420.015C269.423 417.929 315.414 397.944 350.636 366.228C341.361 367.455 331.953 368.106 322.441 368.121H321.894C264.837 368.121 211.11 346.094 170.474 306.065L125.695 261.523L125.681 261.538Z" fill="white"/>
<path d="M379.556 106.006C385.059 114.97 389.852 124.364 393.89 134.142C402.307 154.527 407.233 176.05 408.52 198.166C392.574 221.701 371.361 241.76 346.967 256.302C330.444 266.169 312.441 273.491 293.757 278.033L314.083 257.678C354.526 216.775 377.574 163.21 379.541 106.021L379.556 106.006ZM366.568 69.793C367.751 78.8906 368.373 88.1214 368.387 97.4557C368.535 154.852 346.39 208.92 306.05 249.734L261.523 294.334C327.84 290.104 385.71 254.024 420 201.317C417.944 150.858 398.106 104.985 366.568 69.8078V69.793Z" fill="white"/>
<path d="M98.1948 74.0235C134.393 74.0235 169.467 84.0382 199.704 102.663H165.547L165.399 102.81C109.659 104.231 57.3072 125.606 16.6415 163.491C24.3043 131.716 39.7628 102.041 61.7747 77.4554C73.7569 75.1773 85.9906 74.0382 98.1948 74.0382V74.0235ZM98.1948 62.7217C84.0232 62.7217 69.8516 64.1714 55.9315 67.0856C23.5942 101.923 2.92853 147.722 0.147461 198.299C5.72438 191.08 11.7747 184.157 18.3131 177.589C58.8161 136.878 112.751 114.334 170.147 114.038L170.221 113.964H233.801C195.266 79.7927 146.73 62.7217 98.1948 62.7217Z" fill="white"/>
<path d="M403.506 256.198C400.918 267.086 397.397 277.751 392.974 288.106C384.586 307.722 373.166 325.754 358.98 341.775C346.79 344.127 334.335 345.325 321.894 345.325C286.169 345.325 251.495 335.547 221.509 317.367H249.808H249.838H249.867C307.441 317.012 361.672 295.355 403.492 256.198H403.506ZM419.882 221.375C414.231 228.742 408.077 235.784 401.421 242.47C360.962 283.121 307.116 305.71 249.793 306.065H187.057C225.474 339.793 273.684 356.627 321.879 356.627C336.302 356.627 350.71 355.118 364.867 352.115C396.82 317.307 417.19 271.686 419.882 221.375Z" fill="white"/>
<path d="M126.228 141.968L106.021 162.16V162.19L105.976 162.204C65.4734 203.121 42.3964 256.761 40.4438 314.009C34.9112 305 30.1036 295.562 26.0503 285.74C17.6183 265.296 12.7219 243.698 11.4497 221.524C27.426 198.048 48.6686 178.062 73.0325 163.58C89.5562 153.758 107.559 146.465 126.213 141.968H126.228ZM158.476 125.695C92.2189 129.823 34.3639 165.769 0 218.343C1.98225 268.95 21.8343 314.971 53.4467 350.237C52.2633 341.11 51.6272 331.835 51.6124 322.471C51.4645 265.045 73.6243 210.947 114.009 170.133L158.476 125.681V125.695Z" fill="white"/>
</g>
<defs>
<clipPath id="clip0_69_74">
<rect width="420" height="420" fill="white"/>
</clipPath>
</defs>
</svg>
